# xmcd
#
# Track frame offsets:
#	150
#	14023
#	30774
#	40613
#	53406
#	66408
#	78540
#	90224
#	101609
#	113918
#	124481
#	134243
#	145367
#	162118
#	174911
#	186595
#	197980
#	210289
#
# Disc length: 2932 seconds
#
# Revision: 1
# Processed by: cddbd v1.5.2PL0 Copyright (c) Steve Scherf et al.
# Submitted via: audiograbber 1.83.01
#
DISCID=f90b7212
DTITLE=MARIACHIS - MARIACHIS
DYEAR=1900
DGENRE=
TTITLE0=AMARGA NAVIDAD
TTITLE1=AMOR CON AMOR SE PAGA
TTITLE2=AMOR SINCERO
TTITLE3=AUN SE ACUERDA DE MI
TTITLE4=AUNQUE ME DUELA EL ALMA
TTITLE5=COMO DICE EL REFRAN
TTITLE6=CORAZON
TTITLE7=EL MILAGRO DE TUS OJOS
TTITLE8=ENTRE SUSPIRO Y SUSPIRO
TTITLE9=RAYITO DE LUNA
TTITLE10=CUANDO VIVAS CONMIGO
TTITLE11=SERENATA RANCHERA
TTITLE12=BORRAR
TTITLE13=BORRAR
TTITLE14=BORRAR
TTITLE15=BORRAR
TTITLE16=BORRAR
TTITLE17=BORRAR
EXTD=
EXTT0=
EXTT1=
EXTT2=
EXTT3=
EXTT4=
EXTT5=
EXTT6=
EXTT7=
EXTT8=
EXTT9=
EXTT10=
EXTT11=
EXTT12=
EXTT13=
EXTT14=
EXTT15=
EXTT16=
EXTT17=
PLAYORDER=
